<?xml version="1.0" encoding="UTF-8"?>
<svg width="270px" height="512px" viewBox="0 0 270 512" version="1.1" xmlns="http://www.w3.org/2000/svg" xmlns:xlink="http://www.w3.org/1999/xlink">
    <!-- Generator: Sketch 61.2 (89653) - https://sketch.com -->
    <title>beer</title>
    <desc>Created with Sketch.</desc>
    <g id="Page-1" stroke="none" stroke-width="1" fill="none" fill-rule="evenodd">
        <g id="beer" fill-rule="nonzero">
            <g id="Group" transform="translate(7.000000, 7.000000)">
                <path d="M0.795,40.165 C0.795,18.52 18.505,0.278 40.148,0.505 C49.399,0.602 57.872,3.93 64.503,9.409 C67.228,11.661 71.102,11.641 73.828,9.392 C80.555,3.841 89.174,0.50290397 98.577,0.50290397 C107.98,0.50290397 116.599,3.841 123.326,9.392 C126.06,11.648 129.938,11.648 132.672,9.392 C139.399,3.841 148.018,0.50290397 157.421,0.50290397 C166.824,0.50290397 175.443,3.841 182.17,9.392 C184.896,11.642 188.77,11.661 191.495,9.409 C198.126,3.93 206.599,0.602 215.85,0.505 C237.494,0.278 255.204,18.52 255.204,40.165 L255.204,78.379 L0.795,78.379 L0.795,40.165 Z" id="Path" fill="#E2DEE2"></path>
                <path d="M255.203,40.163 L255.203,78.38 L232.503,78.38 L232.503,40.163 C232.503,22.572 220.803,7.235 204.804,2.226 C208.3,1.144 212.007,0.543 215.853,0.503 C237.492,0.283 255.203,18.515 255.203,40.163 Z" id="Path" fill="#CBC4CC"></path>
            </g>
            <g id="Group">
                <path d="M135,84.826 L7.795,84.826 L7.795,190.004 C7.795,247.214 13.692,304.271 25.393,360.272 L25.825,362.341 C31.48,389.406 35.745,416.742 38.605,444.243 L42.96,486.135 C44.045,496.57 52.84,504.499 63.332,504.499 L135,504.499 L206.668,504.499 C217.16,504.499 225.955,496.571 227.04,486.135 L231.395,444.243 C234.254,416.742 238.52,389.406 244.175,362.341 L244.607,360.272 C256.308,304.272 262.205,247.214 262.205,190.004 L262.205,84.826 L135,84.826 Z" id="Path" fill="#E2DEE2"></path>
                <path d="M262.203,84.826 L262.203,190.001 C262.203,247.212 256.313,304.272 244.597,360.294 C238.791,387.646 234.325,416.105 231.399,444.237 C231.395,444.279 227.041,486.131 227.041,486.131 C225.959,496.569 217.164,504.493 206.665,504.493 C206.665,504.493 183.995,504.493 183.965,504.493 C194.351,504.493 203.262,496.411 204.331,486.131 L208.689,444.237 C210.467,427.058 212.835,409.93 215.691,392.897 C219.685,369.077 225.13,345.73 228.965,321.889 C231.543,305.857 233.662,289.75 235.292,273.594 C238.043,246.34 239.503,217.517 239.503,190.001 C239.503,190 239.503,84.826 239.503,84.826 L262.203,84.826 L262.203,84.826 Z" id="Path" fill="#CBC4CC"></path>
                <path d="M262.203,156.325 L262.203,190.001 C262.203,247.211 256.313,304.271 244.602,360.269 C238.853,387.759 234.323,416.077 231.399,444.237 L227.041,486.131 C225.959,496.569 217.164,504.493 206.665,504.493 L63.334,504.493 C52.836,504.493 44.04,496.569 42.958,486.131 L38.6,444.237 C35.745,416.739 31.477,389.401 25.828,362.343 L25.397,360.269 C13.686,304.271 7.796,247.211 7.796,190 L7.796,156.324 C10.561,156.645 13.646,156.825 17.152,156.825 C46.614,156.825 46.614,143.993 76.066,143.993 C105.538,143.993 105.538,156.825 134.99,156.825 C164.452,156.825 164.452,143.993 193.914,143.993 C223.376,143.993 223.376,156.825 252.837,156.825 C256.343,156.826 259.428,156.645 262.203,156.325 L262.203,156.325 Z" id="Path" fill="#FDB441"></path>
                <path d="M262.203,156.325 L262.203,190.001 C262.203,247.212 256.313,304.272 244.602,360.272 C238.855,387.942 234.327,416.041 231.399,444.238 L227.041,486.132 C225.959,496.57 217.164,504.494 206.665,504.494 C206.665,504.494 183.973,504.494 183.965,504.494 C193.965,504.494 203.255,496.471 204.331,486.132 L208.689,444.238 C210.111,430.494 211.895,416.78 214.028,403.126 C218.485,374.609 225.053,346.599 229.585,318.085 C236.193,276.515 239.502,232.282 239.502,190.001 C239.502,189.999 239.502,155.744 239.502,155.744 C243.218,156.415 247.556,156.826 252.835,156.826 C256.343,156.826 259.428,156.645 262.203,156.325 L262.203,156.325 Z" id="Path" fill="#FEA613"></path>
                <path d="M262.205,85.379 L7.795,85.379 L7.795,113.75 L80.62,113.75 C85.186,113.75 88.887,117.451 88.887,122.017 L88.887,182.708 C88.887,193.456 97.6,202.169 108.348,202.169 C119.096,202.169 127.809,193.456 127.809,182.708 L127.809,122.017 C127.809,117.451 131.51,113.75 136.076,113.75 L153.81,113.75 C158.376,113.75 162.077,117.451 162.077,122.017 L162.077,143.205 C162.077,153.953 170.79,162.666 181.538,162.666 C192.286,162.666 200.999,153.953 200.999,143.205 L200.999,122.017 C200.999,117.451 204.7,113.75 209.266,113.75 L262.208,113.75 L262.208,85.379 L262.205,85.379 Z" id="Path" fill="#FECE85"></path>
                <polygon id="Path" fill="#FEC165" points="239.504 85.38 262.204 85.38 262.204 113.75 239.504 113.75"></polygon>
                <g fill="#000000">
                    <circle id="Oval" cx="71.861" cy="223.944" r="8.515"></circle>
                    <path d="M216.81,260.842 C221.513,260.842 225.325,257.03 225.325,252.327 C225.325,247.624 221.513,243.812 216.81,243.812 C212.107,243.812 208.295,247.624 208.295,252.327 C208.295,257.03 212.108,260.842 216.81,260.842 Z" id="Path"></path>
                    <circle id="Oval" cx="45.087" cy="188.494" r="8.515"></circle>
                    <circle id="Oval" cx="150.861" cy="318.61" r="8.515"></circle>
                    <path d="M159.376,215.429 C159.376,220.132 163.188,223.944 167.891,223.944 C172.594,223.944 176.406,220.132 176.406,215.429 C176.406,210.726 172.594,206.914 167.891,206.914 C163.188,206.914 159.376,210.726 159.376,215.429 L159.376,215.429 Z" id="Path"></path>
                    <circle id="Oval" cx="131.726" cy="251.594" r="8.515"></circle>
                    <circle id="Oval" cx="208.295" cy="182.677" r="8.515"></circle>
                    <path d="M232.922,215.819 C237.625,215.819 241.437,212.007 241.437,207.304 C241.437,202.601 237.625,198.789 232.922,198.789 C228.219,198.789 224.407,202.601 224.407,207.304 C224.407,212.007 228.219,215.819 232.922,215.819 L232.922,215.819 Z" id="Path"></path>
                    <circle id="Oval" cx="53.602" cy="269.357" r="8.515"></circle>
                    <path d="M255.566,13.443 C246.678,4.647 235.035,-0.129 222.773,-0.000395836443 C212.247,0.113 201.98,3.848 193.845,10.521 C185.573,3.735 175.13,-0.000395836443 164.422,-0.000395836443 C153.716,-0.000395836443 143.274,3.733 134.999,10.52 C126.728,3.735 116.286,-0.000395836443 105.577,-0.000395836443 C94.872,-0.000395836443 84.431,3.734 76.155,10.52 C68.019,3.846 57.752,0.112 47.226,-0.000395836443 C34.955,-0.123 23.322,4.647 14.433,13.443 C5.446,22.337 0.292,34.628 0.292,47.165 L0.292,190.004 C0.292,247.612 6.266,305.415 18.049,361.807 L18.481,363.875 C24.061,390.58 28.321,417.88 31.142,445.018 L35.498,486.91 C36.985,501.213 48.951,512 63.332,512 L206.668,512 C221.05,512 233.016,501.213 234.502,486.91 L238.858,445.018 C241.551,419.106 245.62,392.767 250.952,366.733 C251.783,362.673 249.166,358.709 245.107,357.877 C241.045,357.044 237.083,359.663 236.251,363.722 C230.821,390.236 226.676,417.066 223.932,443.466 L219.576,485.358 C218.886,491.992 213.337,496.995 206.667,496.995 L63.332,496.995 C56.662,496.995 51.113,491.992 50.423,485.358 L46.067,443.467 C43.192,415.821 38.853,388.01 33.169,360.806 L32.737,358.737 C21.165,303.353 15.298,246.583 15.298,190.004 L15.298,164.306 C15.911,164.317 16.521,164.329 17.154,164.329 C33.449,164.329 42.036,160.588 49.613,157.288 C56.746,154.18 62.906,151.497 76.068,151.497 C77.984,151.497 79.742,151.558 81.385,151.665 L81.385,159.214 C81.385,163.358 84.744,166.717 88.888,166.717 C93.032,166.717 96.391,163.358 96.391,159.214 L96.391,122.018 C96.391,113.323 89.317,106.248 80.621,106.248 L15.298,106.248 L15.298,92.882 L254.703,92.882 L254.703,106.248 L209.264,106.248 C200.568,106.248 193.494,113.322 193.494,122.018 L193.494,143.206 C193.494,149.799 188.13,155.164 181.536,155.164 C174.943,155.164 169.578,149.8 169.578,143.206 L169.578,122.018 C169.578,113.323 162.504,106.248 153.808,106.248 L136.074,106.248 C127.379,106.248 120.304,113.322 120.304,122.018 L120.304,182.709 C120.304,189.302 114.94,194.667 108.346,194.667 C104.367,194.667 100.658,192.694 98.425,189.39 C96.106,185.957 91.443,185.054 88.008,187.374 C84.575,189.694 83.672,194.358 85.992,197.791 C91.019,205.231 99.376,209.673 108.346,209.673 C123.213,209.673 135.309,197.577 135.309,182.71 L135.309,164.325 C146.774,164.289 154.397,162.394 160.557,160.12 C165.504,166.244 173.068,170.17 181.535,170.17 C193.086,170.17 202.96,162.868 206.793,152.639 C212.127,153.708 216.084,155.419 220.379,157.29 C227.956,160.59 236.543,164.33 252.836,164.33 C253.472,164.33 254.085,164.317 254.702,164.307 L254.702,190.005 C254.702,236.686 250.694,283.686 242.789,329.697 C242.088,333.781 244.829,337.66 248.913,338.362 C252.997,339.064 256.877,336.322 257.577,332.238 C265.626,285.39 269.707,237.535 269.707,190.005 L269.707,47.165 C269.707,34.628 264.554,22.337 255.566,13.443 L255.566,13.443 Z M80.62,121.253 C81.041,121.253 81.384,121.596 81.384,122.017 L81.384,136.635 C79.706,136.542 77.94,136.49 76.067,136.49 C59.779,136.49 51.194,140.23 43.619,143.53 C36.484,146.638 30.322,149.323 17.153,149.323 C16.524,149.323 15.909,149.312 15.297,149.3 L15.297,121.253 L80.62,121.253 Z M135.311,149.319 L135.311,122.017 C135.311,121.596 135.654,121.253 136.075,121.253 L153.809,121.253 C154.23,121.253 154.573,121.596 154.573,122.017 L154.573,143.205 C154.573,144.242 154.638,145.263 154.752,146.27 C149.803,148.041 144.141,149.289 135.311,149.319 Z M254.703,149.3 C254.091,149.313 253.474,149.323 252.837,149.323 C239.67,149.323 233.508,146.639 226.372,143.531 C221.453,141.389 216.104,139.062 208.5,137.693 L208.5,122.017 C208.5,121.596 208.843,121.253 209.264,121.253 L254.703,121.253 L254.703,149.3 Z M254.703,77.876 L15.297,77.876 L15.297,47.165 C15.297,38.608 18.829,30.204 24.988,24.11 C31.006,18.155 38.885,14.929 47.068,15.007 C54.329,15.083 61.126,17.568 66.723,22.192 C72.184,26.705 80.124,26.7 85.603,22.178 C91.209,17.553 98.302,15.005 105.577,15.005 C112.852,15.005 119.946,17.552 125.551,22.178 C131.028,26.697 138.975,26.696 144.448,22.178 C150.054,17.553 157.147,15.005 164.422,15.005 C171.697,15.005 178.791,17.552 184.396,22.178 C189.875,26.7 197.817,26.706 203.276,22.192 C208.872,17.568 215.668,15.083 222.93,15.007 C223.038,15.006 223.144,15.006 223.25,15.006 C231.354,15.006 239.07,18.231 245.011,24.11 C251.169,30.205 254.703,38.609 254.703,47.166 L254.703,77.876 L254.703,77.876 Z" id="Shape"></path>
                </g>
            </g>
        </g>
    </g>
</svg>