<?xml version="1.0" encoding="UTF-8"?>
<svg width="512px" height="512px" viewBox="0 0 512 512" version="1.1" xmlns="http://www.w3.org/2000/svg" xmlns:xlink="http://www.w3.org/1999/xlink">
    <!-- Generator: Sketch 61.2 (89653) - https://sketch.com -->
    <title>candy</title>
    <desc>Created with Sketch.</desc>
    <g id="Page-1" stroke="none" stroke-width="1" fill="none" fill-rule="evenodd">
        <g id="candy" fill-rule="nonzero">
            <path d="M391.443,174.737 C469.08,172.582 497.743,144.132 497.743,144.132 L497.722,144.111 C509.664,131.355 505.281,109.625 488.845,100.101 L488.844,100.101 C478.522,94.12 472.353,82.74 473.288,71.407 L473.289,71.395 C474.778,53.355 458.643,37.22 440.603,38.709 L440.591,38.71 C429.258,39.646 417.878,33.476 411.897,23.154 C402.373,6.718 380.643,2.335 367.887,14.277 C355.131,26.219 339.438,42.94 337.283,120.577 L391.443,174.737 Z" id="Path" fill="#996ACC"></path>
            <path d="M497.723,144.112 C509.665,131.356 505.282,109.626 488.846,100.102 L488.845,100.102 C486.282,98.617 483.976,96.797 481.97,94.729 C486.279,104.568 485.217,116.106 477.722,124.112 L477.743,124.133 C477.743,124.133 449.08,152.583 371.443,154.737 L391.443,174.737 C469.08,172.582 497.743,144.133 497.743,144.133 L497.723,144.112 Z" id="Path" fill="#6D36AB"></path>
            <path d="M174.737,391.443 C172.582,469.08 144.132,497.743 144.132,497.743 L144.111,497.722 C131.355,509.664 109.625,505.281 100.101,488.845 L100.101,488.844 C94.12,478.522 82.74,472.353 71.407,473.288 L71.395,473.289 C53.355,474.778 37.22,458.643 38.709,440.603 L38.71,440.591 C39.646,429.258 33.476,417.878 23.154,411.897 C6.718,402.373 2.335,380.643 14.277,367.887 C26.219,355.131 42.94,339.437 120.577,337.283 L174.737,391.443 Z" id="Path" fill="#FFB25A"></path>
            <path d="M154.737,371.444 C152.582,449.081 124.133,477.744 124.133,477.744 L124.112,477.723 C116.107,485.218 104.568,486.28 94.729,481.971 C96.797,483.977 98.616,486.283 100.101,488.846 L100.101,488.847 C109.625,505.283 131.355,509.666 144.111,497.723 L144.132,497.744 C144.132,497.744 172.582,469.081 174.736,391.444 L154.737,371.444 Z" id="Path" fill="#F88000"></path>
            <path d="M263.524,452.107 C230.882,456.009 198.634,451.266 170.519,437.607 L136.159,168.046 C140.88,162.305 145.945,156.722 151.334,151.333 C171.05,131.617 193.317,116.348 216.64,105.671 L277.119,126.141 L330.359,248.694 L324.834,375.767 L263.524,452.107 Z" id="Path" fill="#FFB25A"></path>
            <path d="M324.397,89.009 C356.436,93.758 386.14,107.669 409.527,131.057 C475.229,196.759 466.146,312.354 389.25,389.251 C383.875,394.626 378.314,399.67 372.587,404.376 L324.397,89.009 Z" id="Path" fill="#FFB25A"></path>
            <path d="M409.528,131.057 C406.175,127.704 402.708,124.559 399.107,121.595 C454.133,188.565 442.186,296.317 369.251,369.251 C368.667,369.834 368.073,370.399 367.485,370.975 L372.589,404.375 C378.316,399.669 383.877,394.625 389.252,389.25 C466.147,312.355 475.229,196.759 409.528,131.057 Z" id="Path" fill="#F88000"></path>
            <path d="M263.524,452.107 L288.214,421.366 C273.474,426.734 258.458,430.328 243.524,432.107 C217.798,435.182 192.326,432.863 168.92,425.066 L170.519,437.607 C177.548,441.022 184.835,443.879 192.322,446.184 C215.33,453.267 239.658,454.957 263.524,452.107 Z" id="Path" fill="#F88000"></path>
            <path d="M324.397,89.009 C399.059,213.364 387.742,337.215 372.588,404.375 C339.586,431.542 301.289,447.608 263.524,452.106 C280.869,391.693 306.384,248.369 216.64,105.671 C251.87,89.527 289.52,83.836 324.397,89.009 Z" id="Path" fill="#996ACC"></path>
            <path d="M136.159,168.047 C188.187,274.05 182.101,376.461 170.519,437.608 C156.113,430.602 142.791,421.262 131.058,409.528 C69.961,348.432 73.533,244.196 136.159,168.047 Z" id="Path" fill="#996ACC"></path>
            <path d="M372.588,404.376 C375.661,390.756 378.576,374.804 380.649,356.989 C377.029,361.17 373.237,365.265 369.251,369.251 C363.876,374.625 358.315,379.669 352.588,384.376 C327.256,405.23 298.802,419.535 269.865,427.095 C267.774,436.512 265.591,444.906 263.523,452.108 C288.307,449.156 313.319,441.222 336.914,428.439 C349.547,421.594 361.498,413.506 372.588,404.376 L372.588,404.376 Z" id="Path" fill="#6D36AB"></path>
            <path d="M172.519,426.24 C164.963,423.926 157.609,421.052 150.519,417.607 C140.23,412.603 130.507,406.386 121.508,398.979 C122.244,399.875 122.991,400.763 123.75,401.645 C126.078,404.35 128.504,406.973 131.027,409.497 C131.037,409.507 131.047,409.518 131.057,409.528 C142.404,420.943 155.963,430.53 170.518,437.608 C171.209,433.964 171.879,430.169 172.519,426.24 L172.519,426.24 Z" id="Path" fill="#6D36AB"></path>
            <path d="M492.604,93.613 C484.827,89.107 480.069,80.431 480.764,72.013 C482.633,49.382 462.683,29.362 439.975,31.237 C431.574,31.932 422.893,27.173 418.387,19.396 C405.929,-2.103 377.418,-5.97 362.563,8.997 C361.664,9.903 341.453,30.839 333.167,82.914 C194.961,55.997 55.927,195.406 82.872,333.175 C30.825,341.465 9.9,361.666 8.994,362.565 C-5.766,376.997 -2.391,405.766 19.392,418.389 C27.168,422.895 31.927,431.571 31.232,439.989 C29.363,462.629 49.321,482.637 72.021,480.765 C80.418,480.069 89.103,484.83 93.609,492.607 C106.081,514.131 134.632,517.937 149.454,503.027 C150.156,502.319 165.623,486.351 175.085,447.894 C241.879,475.949 320.751,456.759 377.346,410.172 L377.347,410.172 C377.348,410.171 377.349,410.17 377.35,410.169 C377.35,410.169 377.351,410.169 377.351,410.168 C424.221,371.644 455.658,316.098 460.336,256.545 C462.628,227.365 458.303,199.679 447.943,175.076 C486.36,165.612 502.313,150.161 503.02,149.459 C517.907,134.693 514.17,106.11 492.604,93.613 L492.604,93.613 Z M139.078,492.163 C129.299,501.178 113.45,496.927 106.589,485.086 C99.128,472.212 85.083,464.638 70.776,465.817 C57.358,466.927 45.072,454.671 46.183,441.212 C47.362,426.93 39.798,412.877 26.913,405.411 C15.063,398.544 10.957,382.63 19.61,373.168 C21.072,371.832 40.423,354.887 86.413,347.792 C98.268,388.646 125.113,421.732 161.25,441.274 C153.586,474.66 141.074,489.895 139.078,492.163 Z M178.94,433.237 C182.643,412.185 185.039,389.55 185.731,367.227 C185.844,363.552 183.286,359.88 178.466,359.499 C174.605,359.379 170.875,362.232 170.725,367.094 C170.123,386.063 168.25,406.039 164.928,426.107 C83.039,378.792 72.385,266.767 134.58,182.28 C157.146,231.929 168.755,284.313 170.67,337.316 C170.819,341.456 174.301,344.691 178.436,344.541 C182.576,344.392 185.81,340.915 185.661,336.775 C183.539,277.936 170.01,221.714 145.026,169.156 C163.728,147.403 186.951,128.665 213.797,115.338 C215.193,119.395 309.949,253.786 257.673,445.186 C229.741,447.748 202.733,443.646 178.94,433.237 Z M384.395,383.5 C396.406,314.333 392.095,246.868 374.925,186.595 C373.791,182.611 369.643,180.303 365.657,181.436 C361.673,182.571 359.364,186.72 360.499,190.704 C379.502,257.425 381.221,330.147 365.824,400.21 C338.209,422.418 306.636,437.07 273.775,442.994 C303.342,328.147 287.822,209.311 227.558,109.107 C257.925,96.658 289.577,92.13 319.788,95.947 C332.148,116.923 343.037,139.743 351.638,163.362 C353.057,167.26 357.365,169.259 361.251,167.843 C365.143,166.426 367.149,162.122 365.732,158.23 C358.45,138.227 349.46,118.43 339.161,99.669 C380.899,110.364 412.614,137.256 430.201,172.508 C461.779,235.938 445.194,322.361 384.395,383.5 L384.395,383.5 Z M492.158,139.082 C489.882,141.083 474.609,153.589 441.311,161.243 C422.542,126.626 390.214,98.721 347.786,86.434 C354.915,40.191 372,20.88 373.151,19.625 C382.694,10.879 398.584,15.139 405.408,26.916 C412.875,39.801 426.929,47.364 441.221,46.185 C454.638,45.075 466.925,57.33 465.814,70.79 C464.635,85.072 472.199,99.125 485.085,106.591 C491.377,110.237 495.745,116.562 496.771,123.51 C497.616,129.239 496.221,134.675 492.158,139.082 L492.158,139.082 Z" id="Shape" fill="#000000"></path>
        </g>
    </g>
</svg>