<?xml version="1.0" encoding="UTF-8"?>
<svg width="384px" height="480px" viewBox="0 0 384 480" version="1.1" xmlns="http://www.w3.org/2000/svg" xmlns:xlink="http://www.w3.org/1999/xlink">
    <!-- Generator: Sketch 61.2 (89653) - https://sketch.com -->
    <title>soda</title>
    <desc>Created with Sketch.</desc>
    <g id="Page-1" stroke="none" stroke-width="1" fill="none" fill-rule="evenodd">
        <g id="soda" fill-rule="nonzero">
            <path d="M376,215.08 C376,250.557176 374.005805,286.006306 370.03,321.26 L360.26,408 L358.46,424 L355.02,454.46 C353.815282,464.510029 345.261819,472.056697 335.14,472.00037 L224.86,472.00037 C214.736476,472.061247 206.180415,464.512288 204.98,454.46 L201.54,424 L199.74,408 L189.96,321.26 C182.125438,251.732724 182.014764,181.55164 189.63,112 C191.963333,90.59 195.033333,69.2566667 198.84,48 L361.16,48 C364.96,69.24 368.03,90.5733333 370.37,112 C374.119873,146.232045 376,180.643182 376,215.08 L376,215.08 Z" id="Path" fill="#F2F2F2"></path>
            <path d="M376,215.08 C376,250.557176 374.005805,286.006306 370.03,321.26 L360.26,408 L358.46,424 L355.02,454.46 C353.815282,464.510029 345.261819,472.056697 335.14,472.00037 L224.86,472.00037 C214.736476,472.061247 206.180415,464.512288 204.98,454.46 L201.54,424 L199.74,408 L189.96,321.26 C182.125438,251.732724 182.014764,181.55164 189.63,112 L370.37,112 C374.119873,146.232045 376,180.643182 376,215.08 L376,215.08 Z" id="Path" fill="#E0E0DE"></path>
            <path d="M358.46,424 L355.02,454.46 C353.815282,464.510029 345.261819,472.056697 335.14,472.00037 L224.86,472.00037 C214.736476,472.061247 206.180415,464.512288 204.98,454.46 L201.54,424 L358.46,424 Z" id="Path" fill="#F2F2F2"></path>
            <path d="M151.999998,439.96 C152.002397,448.458024 148.62647,456.608449 142.617459,462.617459 C136.608449,468.62647 128.458024,472 119.96,472 L40.04,472 C31.5419758,472 23.3915515,468.62647 17.3825408,462.617459 C11.3735301,456.608449 7.99840816,448.458024 7.99999833,439.96 L7.99999833,439.13 C7.99834091,429.080559 9.23090044,419.068952 11.67,409.32 C14.5415307,397.835716 15.7372376,385.996535 15.22,374.17 L14.61,360 L9.98,253.43 C9.9,251.62 9.85,249.81 9.82,248 C9.79,246.74 9.78,245.47 9.78,244.21 C9.78180228,217.343522 14.9101796,190.724155 24.89,165.78 C26.71,161.24 28.3633333,156.646667 29.85,152 C36.5770001,131.095746 40.0015111,109.269972 39.9999983,87.31 L39.9999983,16 C39.9999983,11.581722 43.581722,8 47.9999983,8 L111.999998,8 C116.418278,8 119.999998,11.581722 119.999998,16 L119.999998,87.31 C119.996676,109.270113 123.42123,131.096167 130.15,152 C131.64,156.65 133.293333,161.243333 135.11,165.78 C145.563495,191.908204 150.68726,219.862813 150.18,248 C150.15,249.81 150.1,251.62 150.02,253.43 L145.39,360 L144.78,374.17 C144.7,375.96 144.66,377.75 144.66,379.54 C144.661475,389.693034 145.921073,399.806761 148.41,409.65 C150.857789,419.56558 152.063699,429.746952 151.999998,439.96 L151.999998,439.96 Z" id="Path" fill="#E0E0DE"></path>
            <path d="M152,439.96 C152.001592,448.458024 148.62647,456.608449 142.617459,462.617459 C136.608449,468.62647 128.458024,472 119.96,472 L83.61,472 C101.304746,472 115.648896,457.654746 115.65,439.96 C115.713699,429.746952 114.507789,419.56558 112.06,409.65 C109.571073,399.806761 108.311475,389.693034 108.31,379.54 C108.31,377.75 108.35,375.96 108.43,374.17 L109.04,360 L113.67,253.43 C113.75,251.62 113.8,249.81 113.83,248 C114.33726,219.862813 109.213495,191.908204 98.76,165.78 C96.94,161.24 95.2866667,156.646667 93.8,152 C87.0712304,131.096167 83.6466757,109.270113 83.65,87.31 L83.65,16 C83.65,11.581722 80.068278,8 75.65,8 L112,8 C116.418278,8 120,11.581722 120,16 L120,87.31 C119.996676,109.270113 123.42123,131.096167 130.15,152 C131.64,156.65 133.293333,161.243333 135.11,165.78 C145.563495,191.908204 150.68726,219.862813 150.18,248 C150.15,249.81 150.1,251.62 150.02,253.43 L145.39,360 L144.78,374.17 C144.7,375.96 144.66,377.75 144.66,379.54 C144.661475,389.693034 145.921073,399.806761 148.41,409.65 C150.857789,419.56558 152.063699,429.746952 152,439.96 L152,439.96 Z" id="Path" fill="#DBDBD9"></path>
            <path d="M130.15,152 L29.85,152 C36.5770001,131.095746 40.0015111,109.269972 40,87.31 L40,72 L120,72 L120,87.31 C119.996676,109.270113 123.42123,131.096167 130.15,152 L130.15,152 Z" id="Path" fill="#F43131"></path>
            <path d="M150.18,248 C150.15,249.81 150.1,251.62 150.02,253.43 L145.39,360 L14.61,360 L9.98,253.43 C9.9,251.62 9.85,249.81 9.82,248 L150.18,248 Z" id="Path" fill="#F43131"></path>
            <path d="M130.149998,152 L93.8,152 C87.0712304,131.096167 83.6466757,109.270113 83.6499976,87.31 L83.6499976,72 L120,72 L120,87.31 C119.996676,109.270113 123.42123,131.096167 130.149998,152 L130.149998,152 Z" id="Path" fill="#D71616"></path>
            <path d="M150.18,248 C150.15,249.81 150.1,251.62 150.02,253.43 L145.39,360 L109.04,360 L113.67,253.43 C113.75,251.62 113.8,249.81 113.83,248 L150.18,248 Z" id="Path" fill="#D71616"></path>
            <polygon id="Path" fill="#DDBC13" points="40 280 120 280 120 296 40 296"></polygon>
            <polygon id="Path" fill="#DDBC13" points="48 312 112 312 112 328 48 328"></polygon>
            <g id="Group" transform="translate(206.000000, 240.000000)" fill="#EBEBE9">
                <polygon id="Path" transform="translate(33.932713, 70.056713) rotate(-45.000000) translate(-33.932713, -70.056713) " points="9.93633727 46.0603373 57.9290887 46.0603373 57.9290887 94.0530887 9.93633727 94.0530887"></polygon>
                <polygon id="Path" points="90 0 138 0 138 48 90 48"></polygon>
                <polygon id="Path" points="74 104 122 104 122 152 74 152"></polygon>
            </g>
            <path d="M237.49,248 C214.584824,225.108198 212.394899,188.712076 232.39,163.239 C233.970973,161.220292 235.674165,159.30036 237.49,157.49 C248.447791,146.519976 263.018729,139.905837 278.49,138.879 C283.83308,138.527157 289.199184,138.843265 294.464,139.82 C307.177268,142.168935 318.874357,148.33209 328,157.49 L237.49,248 Z" id="Path" fill="#FADB41"></path>
            <path d="M152.66,379.54 C152.66,377.877 152.698,376.19 152.773,374.514 L158.012,253.783 C158.09,252.014 158.145,250.166 158.179,248.146 C158.737675,218.936415 153.417931,189.912645 142.536,162.8 C140.806,158.484 139.202,154.028 137.766,149.548 C131.293066,129.436639 127.998094,108.438369 127.999992,87.311 L127.999992,16 C127.98953,7.1677843 120.832216,0.0104696182 111.999992,1.13686838e-13 L47.9999921,1.13686838e-13 C39.1677843,0.0104696182 32.0104696,7.1677843 31.9999921,16 L31.9999921,80 L111.999992,80 L111.999992,87.311 C112.002192,101.225404 113.326477,115.108124 115.955,128.772 C116.934,133.859 118.129,138.948 119.482,144 L40.542,144 C44.7125179,128.425613 47.1512834,112.438486 47.814,96.329 L31.828,95.671 C31.0734425,113.984469 27.844142,132.111609 22.228,149.559 C20.794,154.032 19.19,158.488 17.458,162.809 C7.07703058,188.690915 1.75364034,216.322847 1.776,244.209 C1.776,245.531 7.224,374.52 7.224,374.52 C7.70783384,385.576068 6.58992654,396.64399 3.905,407.38 C1.30777782,417.763436 -0.00371593281,428.426669 -7.87420188e-06,439.13 L-7.87420188e-06,439.96 C0.0253493668,462.062973 17.9370272,479.974651 40.04,480 L119.96,480 C142.062973,479.974651 159.974651,462.062973 159.999992,439.96 C160.060169,429.085373 158.773036,418.245168 156.168,407.687 C153.839299,398.485815 152.660969,389.031294 152.66,379.54 L152.66,379.54 Z M18.1,256 L141.9,256 L137.734,352 L22.265,352 L18.1,256 Z M48,64 L48,16 L112,16 L112,32 L64,32 L64,48 L112,48 L112,64 L48,64 Z M32.316,168.757 C33.467,165.885 34.559,162.957 35.594,160 L124.406,160 C125.442,162.953 126.533,165.883 127.682,168.751 C136.779286,191.428939 141.684141,215.569998 142.158,240 L17.83,240 C18.3132652,215.572011 23.2213,191.434007 32.316,168.757 L32.316,168.757 Z M119.96,464 L40.04,464 C26.7692429,463.98512 16.0148797,453.230757 16,439.96 L16,439.13 C16.0025266,434.435254 16.2897203,429.744981 16.86,425.085 C17.4342255,420.428141 18.2931672,415.810828 19.432,411.259 C22.4908569,399.028958 23.764047,386.420672 23.212,373.826 L22.96,368 L137.04,368 C137.04,368 136.66,377.64 136.66,379.54 C136.661736,390.355616 138.005332,401.129236 140.66,411.614 C142.938385,420.88871 144.060244,430.40973 144,439.96 C143.98512,453.230757 133.230757,463.98512 119.96,464 L119.96,464 Z" id="Shape" fill="#000000"></path>
            <path d="M62.028,180.639 L47.173,174.7 C40.9566646,190.214515 36.8506797,206.493158 34.965,223.1 L50.865,224.9 C52.5889533,209.713338 56.3434719,194.826771 62.028,180.639 L62.028,180.639 Z" id="Path" fill="#000000"></path>
            <polygon id="Path" fill="#000000" points="40 280 120 280 120 296 40 296"></polygon>
            <polygon id="Path" fill="#000000" points="48 312 112 312 112 328 48 328"></polygon>
            <path d="M378.323,111.135 C375.995,89.745 372.871,68.029 369.035,46.591 C368.352555,42.7767955 365.034776,40 361.16,40 L198.84,40 C194.965224,40 191.647445,42.7767955 190.965,46.591 C187.129,68.029 184.004,89.745 181.677,111.129 C174.011187,181.268679 174.122865,252.040864 182.01,322.156 L197.03,455.356 C198.671807,469.462019 210.658965,480.076877 224.86,480.000415 L335.14,480.000415 C349.337565,480.069117 361.319844,469.458628 362.969,455.357 L377.98,322.157 C381.981442,286.604818 383.991247,250.856655 384,215.08 C383.992053,180.35441 382.096926,145.65491 378.323,111.135 L378.323,111.135 Z M205.56,56 L354.44,56 C357.179,71.965 359.509,88.049 361.403,104 L198.6,104 C200.491,88.052 202.821,71.967 205.56,56 Z M335.14,464 L224.86,464 C218.8044,464.069303 213.665579,459.573158 212.93,453.562 L210.5,432 L349.5,432 L347.071,453.56 C346.331572,459.569825 341.194797,464.064665 335.14,464 L335.14,464 Z M362.081,320.364 L351.3,416 L208.694,416 L197.91,320.364 C190.429893,253.80385 190.075218,186.635432 196.852,120 L363.152,120 C366.368247,151.591461 367.98631,183.325245 368,215.08 C367.990836,250.257556 366.014752,285.407082 362.081,320.364 L362.081,320.364 Z" id="Shape" fill="#000000"></path>
            <path d="M238.4,256.000007 C240.522287,256.002723 242.558149,255.159516 244.057,253.657 L333.657,164.057 C335.15738,162.556697 336.000292,160.521803 336.000292,158.4 C336.000292,156.278197 335.15738,154.243303 333.657,152.743 C315.635616,134.690654 289.348575,127.630939 264.707863,134.225843 C240.06715,140.820747 220.820747,160.06715 214.225843,184.707863 C207.630939,209.348575 214.690654,235.635616 232.743,253.657 C234.241851,255.159516 236.277713,256.002723 238.4,256.000007 L238.4,256.000007 Z M238.808,236.278 C233.318331,228.913185 229.757955,220.292241 228.451,211.2 L263.886,211.2 L238.808,236.278 Z M275.2,183.886 L250.12,158.807 C257.475621,153.29405 266.100592,149.72129 275.2,148.418 L275.2,183.886 Z M263.886,195.2 L228.455,195.2 C229.762597,186.109156 233.322943,177.489661 238.812,170.126 L263.886,195.2 Z M291.2,183.886 L291.2,148.424 C300.299827,149.72339 308.925996,153.293124 316.283,158.804 L291.2,183.886 Z" id="Shape" fill="#000000"></path>
            <path d="M344,232 L296,232 C291.581722,232 288,235.581722 288,240 L288,288 C288,292.418278 291.581722,296 296,296 L344,296 C348.418278,296 352,292.418278 352,288 L352,240 C352,235.581722 348.418278,232 344,232 Z M336,280 L304,280 L304,248 L336,248 L336,280 Z" id="Shape" fill="#000000"></path>
            <path d="M281.941001,310.059 C281.942138,307.936833 281.10003,305.901168 279.6,304.4 L245.659,270.46 C244.158697,268.95962 242.123803,268.116708 240.002,268.116708 C237.880197,268.116708 235.845303,268.95962 234.345,270.46 L200.4,304.4 C198.899314,305.900343 198.056208,307.935452 198.056208,310.0575 C198.056208,312.179548 198.899314,314.214657 200.4,315.715 L234.341,349.656 C235.841303,351.15638 237.876197,351.999292 239.998,351.999292 C242.119803,351.999292 244.154697,351.15638 245.655,349.656 L279.6,315.716 C281.09954,314.215322 281.941001,312.180474 281.941001,310.059 L281.941001,310.059 Z M240,332.687 L217.373,310.059 L240,287.432 L262.627,310.059 L240,332.687 Z" id="Shape" fill="#000000"></path>
            <path d="M328,336 L280,336 C275.581722,336 272,339.581722 272,344 L272,392 C272,396.418278 275.581722,400 280,400 L328,400 C332.418278,400 336,396.418278 336,392 L336,344 C336,339.581722 332.418278,336 328,336 Z M320,384 L288,384 L288,352 L320,352 L320,384 Z" id="Shape" fill="#000000"></path>
        </g>
    </g>
</svg>