<?xml version="1.0" encoding="UTF-8"?>
<svg width="190px" height="514px" viewBox="0 0 190 514" version="1.1" xmlns="http://www.w3.org/2000/svg" xmlns:xlink="http://www.w3.org/1999/xlink">
    <!-- Generator: Sketch 61.2 (89653) - https://sketch.com -->
    <title>water</title>
    <desc>Created with Sketch.</desc>
    <g id="Page-1" stroke="none" stroke-width="1" fill="none" fill-rule="evenodd">
        <g id="water" fill-rule="nonzero">
            <g id="Group" transform="translate(7.000000, 7.000000)">
                <rect id="Rectangle" fill="#00A3B4" x="37" y="0.492" width="102" height="37.996" rx="8"></rect>
                <path d="M175.332001,215.048 L175.332001,204.176 C175.332001,176.04761 165.815882,148.746522 148.332,126.712 C130.848,104.68 121.332,105.4 121.332,77.272 L121.332,38.472 L54.668,38.472 L54.668,77.272 C54.668,105.4 45.152,104.68 27.668,126.712 C10.1841176,148.746522 0.668,176.04761 0.668,204.176 L0.668,215.048 C0.668,224.395344 3.78328765,233.476097 9.52,240.856 C20.9003329,255.488777 21.3520928,275.848847 10.632,290.972 L8.408,294.104 C3.37536918,301.206289 0.670981284,309.695411 0.668,318.4 L0.668,479.492 C0.668,490.537695 9.622305,499.492 20.668,499.492 L155.332,499.492 C166.377695,499.492 175.332001,490.537695 175.332001,479.492 L175.332001,318.4 C175.332001,309.69628 172.62979,301.207236 167.6,294.104 L165.376,290.972 C154.655907,275.848847 155.107667,255.488777 166.488,240.856 C172.221848,233.475061 175.332001,224.394404 175.332001,215.048 L175.332001,215.048 Z" id="Path" fill="#C1F7FF"></path>
                <polygon id="Path" fill="#00A3B4" points="0.668 326.152 175.336 326.152 175.336 454.152 0.668 454.152"></polygon>
                <path d="M57.416,398.16 C57.416,381.268 88,351.564 88,351.564 C88,351.564 118.584,381.268 118.584,398.16 C118.584,415.051077 104.891077,428.744 88,428.744 C71.1089232,428.744 57.416,415.051077 57.416,398.16 L57.416,398.16 Z" id="Path" fill="#FFE72C"></path>
            </g>
            <g id="Group" fill="#000000">
                <path d="M189.332082,222.052 L189.332082,211.176 C189.291914,181.474216 179.246303,152.652091 160.816,129.36 C156.754936,124.29863 152.431686,119.453333 147.864,114.844 C138.748,105.416 135.332,101.892 135.332,84.268 L135.332,52.488 L138,52.488 C146.279703,52.4769824 152.988982,45.7677033 153,37.488 L153,15.488 C152.988982,7.20829668 146.279703,0.499017584 138,0.488 L52,0.488 C43.7202967,0.499017584 37.0110176,7.20829668 37,15.488 L37,37.488 C37.0110176,45.7677033 43.7202967,52.4769824 52,52.488 L54.668,52.488 L54.668,84.268 C54.668,101.892 51.252,105.416 42.136,114.844 C37.5679456,119.45417 33.2434069,124.299416 29.18,129.36 C21.9027243,138.533359 15.8803831,148.635611 11.272,159.4 C9.79574547,162.945017 11.4510869,167.017517 14.9819558,168.527298 C18.5128246,170.037079 22.6008279,168.420404 24.144,164.904 C28.260117,155.281957 33.6408647,146.251717 40.144,138.052 C43.9231409,133.358965 47.9474079,128.868717 52.2,124.6 C63.024,113.4 68.672,106.54 68.672,84.288 L68.672,52.488 L121.332,52.488 L121.332,84.268 C121.332,106.52 127,113.4 137.8,124.6 C142.050359,128.878456 146.070678,133.379451 149.844,138.084 C166.314354,158.897853 175.291879,184.653812 175.328,211.196 L175.328,222.072 C175.315178,229.860356 172.719691,237.424546 167.948,243.58 C154.579959,260.61451 154.052051,284.425767 166.652,302.036 L168.876,305.172 C173.078605,311.079521 175.335271,318.150125 175.332,325.4 L175.332,326.136 L127.5,326.136 C123.634007,326.136 120.5,329.270007 120.5,333.136 C120.5,337.001993 123.634007,340.136 127.5,340.136 L175.332,340.136 L175.332,454.136 L14.668,454.136 L14.668,340.136 L37,340.136 C40.8659932,340.136 44,337.001993 44,333.136 C44,329.270007 40.8659932,326.136 37,326.136 L14.668,326.136 L14.668,325.4 C14.6560681,318.138273 16.9116776,311.05401 21.12,305.136 L23.344,302 C35.9439491,284.389767 35.4160411,260.57851 22.048,243.544 C17.2763085,237.388546 14.6808223,229.824356 14.668,222.036 L14.668,211.176 C14.668,207.310007 11.5339932,204.176 7.668,204.176 C3.80200675,204.176 0.66794499,207.310007 0.66794499,211.176 L0.66794499,222.052 C0.685407668,232.952367 4.31928055,243.538853 11,252.152 C20.5527528,264.323838 20.9275436,281.339345 11.92,293.92 L9.7,297.06 C3.8104492,305.33505 0.652745523,315.24308 0.66794499,325.4 L0.66794499,486.492 C0.683433344,501.397291 12.7627091,513.476567 27.668,513.492 L162.332,513.492 C177.237291,513.476567 189.316567,501.397291 189.332082,486.492 L189.332082,325.4 C189.35059,315.237619 186.192728,305.323498 180.3,297.044 L178.08,293.904 C169.080483,281.326704 169.455208,264.320674 179,252.152 C185.680719,243.538853 189.314592,232.952367 189.332082,222.052 L189.332082,222.052 Z M61.668,38.488 L52,38.488 C51.4477153,38.488 51,38.0402847 51,37.488 L51,15.488 C51,14.9357153 51.4477153,14.488 52,14.488 L138,14.488 C138.552285,14.488 139,14.9357153 139,15.488 L139,37.488 C139,38.0402847 138.552285,38.488 138,38.488 L61.668,38.488 Z M162.332,499.508 L27.668,499.508 C20.491953,499.499184 14.6768158,493.684047 14.668,486.508 L14.668,468.152 L175.332,468.152 L175.332,486.508 C175.323184,493.684047 169.508047,499.499184 162.332,499.508 Z" id="Shape"></path>
                <path d="M88.668,340.152 C92.5339932,340.152 95.668,337.017993 95.668,333.152 C95.668,329.286007 92.5339932,326.152 88.668,326.152 L75.832,326.152 C71.9660068,326.152 68.832,329.286007 68.832,333.152 C68.832,337.017993 71.9660068,340.152 75.832,340.152 L88.668,340.152 Z" id="Path"></path>
                <path d="M95,442.744 C115.759507,442.728558 132.584558,425.903507 132.6,405.144 C132.6,386.248 105.356,358.832 99.892,353.544 C97.1777493,350.903008 92.8542507,350.903008 90.14,353.544 C84.676,358.848 57.432,386.264 57.432,405.144 C57.4474121,425.89103 74.2529909,442.710923 95,442.744 L95,442.744 Z M95,368.552 C106.044,380.276 118.6,396.82 118.6,405.16 C118.132582,417.847199 107.711806,427.891125 95.016,427.891125 C82.3201937,427.891125 71.8994182,417.847199 71.431939,405.16 C71.4,396.836 83.96,380.288 95,368.552 Z" id="Shape"></path>
            </g>
        </g>
    </g>
</svg>