<?xml version="1.0" encoding="UTF-8"?>
<svg width="348px" height="512px" viewBox="0 0 348 512" version="1.1" xmlns="http://www.w3.org/2000/svg" xmlns:xlink="http://www.w3.org/1999/xlink">
    <!-- Generator: Sketch 61.2 (89653) - https://sketch.com -->
    <title>whiskey</title>
    <desc>Created with Sketch.</desc>
    <g id="Page-1" stroke="none" stroke-width="1" fill="none" fill-rule="evenodd">
        <g id="whiskey" fill-rule="nonzero">
            <path d="M317.254,504.494 L232.181,504.494 C226.462,504.494 221.69,500.125 221.188,494.428 L209.872,366.054 C209.51,361.944 212.748,358.408 216.874,358.408 L332.562,358.408 C336.688,358.408 339.926,361.944 339.564,366.054 L328.248,494.428 C327.745,500.125 322.974,504.494 317.254,504.494 Z" id="Path" fill="#E5F9F6"></path>
            <path d="M332.562,358.408 L285.108,358.408 L272.23,504.495 L317.255,504.495 C322.974,504.495 327.746,500.126 328.248,494.428 L339.564,366.054 C339.926,361.944 336.687,358.408 332.562,358.408 Z" id="Path" fill="#D6E5E2"></path>
            <path d="M116.388,75.168 L116.388,38.891 L59.133,38.891 L59.133,75.168 C59.133,103.943 46.428,131.25 24.417,149.785 L14.958,157.75 C10.807,161.245 8.411,166.395 8.411,171.822 L8.411,485.722 C8.411,496.09 16.816,504.495 27.184,504.495 L148.336,504.495 C158.704,504.495 167.109,496.09 167.109,485.722 L167.109,171.822 C167.109,166.395 164.713,161.246 160.562,157.75 L151.103,149.785 C129.093,131.25 116.388,103.943 116.388,75.168 Z" id="Path" fill="#E5F9F6"></path>
            <g id="Group" transform="translate(8.000000, 106.000000)" fill="#FD9727">
                <path d="M205.05,296.106 L213.188,388.427 C213.69,394.124 218.462,398.494 224.181,398.494 L309.254,398.494 C314.973,398.494 319.745,394.125 320.247,388.427 L328.385,296.106 L205.05,296.106 L205.05,296.106 Z" id="Path"></path>
                <path d="M16.417,43.785 L6.958,51.75 C2.807,55.245 0.411,60.395 0.411,65.822 L0.411,379.722 C0.411,390.09 8.816,398.495 19.184,398.495 L140.336,398.495 C150.704,398.495 159.109,390.09 159.109,379.722 L159.109,65.822 C159.109,60.395 156.713,55.245 152.562,51.75 L143.103,43.785 C129.229,32.103 119.057,16.933 113.429,0.109 L46.091,0.109 C40.463,16.932 30.291,32.102 16.417,43.785 Z" id="Path"></path>
            </g>
            <path d="M167.11,485.721 L167.11,171.821 C167.11,169.786 166.773,167.79 166.133,165.905 C165.92,165.277 165.673,164.661 165.393,164.06 C164.834,162.859 164.145,161.718 163.337,160.658 C162.529,159.599 161.601,158.622 160.563,157.748 L151.104,149.783 C150.312,149.116 149.537,148.435 148.769,147.747 C148.533,147.535 148.301,147.319 148.067,147.104 C147.529,146.611 146.996,146.114 146.47,145.61 C146.22,145.37 145.97,145.13 145.723,144.887 C145.184,144.36 144.653,143.826 144.128,143.288 C143.932,143.087 143.733,142.889 143.539,142.686 C142.822,141.938 142.115,141.182 141.424,140.414 C141.383,140.368 141.343,140.321 141.302,140.275 C140.656,139.554 140.022,138.823 139.399,138.084 C139.218,137.87 139.041,137.653 138.862,137.437 C138.369,136.843 137.883,136.243 137.405,135.638 C137.226,135.411 137.047,135.184 136.87,134.956 C136.348,134.283 135.835,133.603 135.331,132.917 C135.228,132.777 135.122,132.638 135.02,132.498 C134.393,131.635 133.78,130.763 133.182,129.882 C133.17,129.864 133.159,129.846 133.147,129.829 C132.58,128.991 132.029,128.143 131.489,127.289 C131.375,127.109 131.264,126.928 131.152,126.748 C130.7,126.022 130.257,125.29 129.824,124.553 C129.719,124.374 129.613,124.195 129.509,124.016 C129.004,123.143 128.51,122.264 128.033,121.377 C128.025,121.361 128.016,121.346 128.007,121.33 C126.991,119.439 126.042,117.514 125.153,115.561 C125.088,115.418 125.025,115.275 124.96,115.132 C124.578,114.283 124.209,113.428 123.852,112.568 C123.8,112.443 123.747,112.318 123.695,112.192 C122.874,110.191 122.117,108.162 121.43,106.108 L77.013,106.108 C78.043,114.58 80.131,122.903 83.359,130.831 C86.345,138.166 90.36,145.403 95.563,149.784 L98.23,152.03 C106.687,159.151 111.569,169.644 111.569,180.7 L111.569,504.494 L148.336,504.494 C150.28,504.494 152.155,504.198 153.919,503.65 C161.561,501.274 167.11,494.145 167.11,485.721 Z" id="Path" fill="#E57F23"></path>
            <path d="M117.674,59.781 L57.847,59.781 C54.859,59.781 52.436,57.359 52.436,54.37 L52.436,12.916 C52.436,9.928 54.858,7.505 57.847,7.505 L117.674,7.505 C120.662,7.505 123.085,9.927 123.085,12.916 L123.085,54.37 C123.085,57.358 120.662,59.781 117.674,59.781 Z" id="Path" fill="#4A4256"></path>
            <path d="M117.674,7.505 L67.667,7.505 L67.667,59.78 L117.674,59.78 C120.662,59.78 123.085,57.358 123.085,54.369 L123.085,12.916 C123.085,9.928 120.662,7.505 117.674,7.505 Z" id="Path" fill="#352F3F"></path>
            <polygon id="Path" fill="#4A4256" points="8.411 323.643 167.11 397.1 167.11 286.96 8.411 213.503"></polygon>
            <polygon id="Path" fill="#352F3F" points="167.11 397.1 167.11 286.96 111.569 261.252 111.569 371.392"></polygon>
            <polygon id="Path" fill="#FDC74F" points="167.11 315.318 167.11 286.96 8.411 213.503 8.411 241.079"></polygon>
            <polygon id="Path" fill="#E5A535" points="167.11 315.318 167.11 286.96 111.569 261.252 111.569 289.336"></polygon>
            <polygon id="Path" fill="#FDC74F" points="8.411 297.286 8.411 323.643 167.11 397.1 167.11 371.525"></polygon>
            <polygon id="Path" fill="#E5A535" points="167.11 397.1 167.11 371.525 111.569 345.543 111.569 371.392"></polygon>
            <path d="M132.794,472.895 L42.728,472.895 C38.583,472.895 35.223,469.535 35.223,465.39 C35.223,461.245 38.583,457.885 42.728,457.885 L132.794,457.885 C136.939,457.885 140.299,461.245 140.299,465.39 C140.299,469.535 136.939,472.895 132.794,472.895 Z" id="Path" fill="#E9EAEB"></path>
            <path d="M281.256,402.106 L272.23,504.494 L317.255,504.494 C322.974,504.494 327.746,500.125 328.248,494.427 L336.386,402.106 L281.256,402.106 L281.256,402.106 Z" id="Path" fill="#E57F23"></path>
            <path d="M116.388,59.781 L76.225,59.781 L76.252,93.608 C76.255,97.792 76.51,101.968 77.013,106.108 L121.43,106.108 C118.129,96.241 116.388,85.805 116.388,75.167 L116.388,59.781 Z" id="Path" fill="#D6E5E2"></path>
            <path d="M322.317,478.836 L227.119,478.836 C224.295,478.836 221.679,477.882 219.588,476.27 L221.189,494.428 C221.691,500.125 226.463,504.495 232.182,504.495 L317.255,504.495 C322.974,504.495 327.746,500.126 328.248,494.428 L329.849,476.27 C327.756,477.882 325.141,478.836 322.317,478.836 Z" id="Path" fill="#D7E0DC"></path>
            <path d="M322.317,478.836 L274.492,478.836 L272.23,504.495 L317.255,504.495 C320.472,504.495 323.389,503.113 325.415,500.889 C326.991,499.159 328.028,496.921 328.247,494.429 L329.848,476.271 C327.756,477.882 325.141,478.836 322.317,478.836 Z" id="Path" fill="#CBD1CF"></path>
            <path d="M42.728,446.351 L132.794,446.351 C136.939,446.351 140.299,442.991 140.299,438.846 C140.299,434.701 136.939,431.341 132.794,431.341 L42.728,431.341 C38.583,431.341 35.223,434.701 35.223,438.846 C35.223,442.991 38.583,446.351 42.728,446.351 Z" id="Path" fill="#000000"></path>
            <path d="M42.728,472.895 L132.794,472.895 C136.939,472.895 140.299,469.535 140.299,465.39 C140.299,461.245 136.939,457.885 132.794,457.885 L42.728,457.885 C38.583,457.885 35.223,461.245 35.223,465.39 C35.223,469.535 38.583,472.895 42.728,472.895 Z" id="Path" fill="#000000"></path>
            <path d="M165.397,152.008 L165.397,152.008 L155.939,144.044 C143.218,133.332 133.886,119.516 128.672,104.164 C128.602,103.903 128.519,103.647 128.423,103.398 C125.456,94.398 123.894,84.886 123.894,75.168 L123.894,65.684 C127.882,63.483 130.591,59.238 130.591,54.37 L130.591,12.916 C130.59,5.794 124.796,0 117.674,0 L57.847,0 C50.725,0 44.931,5.794 44.931,12.916 L44.931,54.37 C44.931,59.238 47.64,63.483 51.628,65.684 L51.628,75.168 C51.628,84.885 50.065,94.398 47.099,103.398 C47.002,103.647 46.92,103.903 46.85,104.164 C41.637,119.515 32.305,133.332 19.583,144.044 L10.125,152.008 C4.266,156.941 0.906,164.163 0.906,171.821 L0.906,485.721 C0.906,500.211 12.694,512 27.184,512 L148.337,512 C162.827,512 174.615,500.211 174.615,485.721 L174.615,171.821 C174.615,164.163 171.256,156.941 165.397,152.008 Z M59.942,15.011 L115.579,15.011 L115.579,52.275 L59.942,52.275 L59.942,15.011 L59.942,15.011 Z M111.522,98.603 L63.999,98.603 C65.735,90.992 66.639,83.139 66.639,75.167 L66.639,67.286 L108.883,67.286 L108.883,75.167 C108.883,83.139 109.786,90.992 111.522,98.603 Z M159.605,485.721 C159.605,491.934 154.551,496.989 148.338,496.989 L27.184,496.989 C20.971,496.989 15.917,491.934 15.917,485.721 L15.917,335.387 L159.605,401.895 L159.605,485.721 Z M159.605,385.355 L15.917,318.847 L15.917,309.084 L159.605,376.3 L159.605,385.355 Z M159.605,359.728 L15.917,292.511 L15.917,252.876 L159.605,320.093 L159.605,359.728 Z M159.605,275.215 L72.842,235.055 C69.08,233.313 64.619,234.952 62.878,238.713 C61.136,242.475 62.775,246.936 66.536,248.677 L159.605,291.755 L159.605,303.52 L15.917,236.304 L15.917,225.248 L34.33,233.771 C38.092,235.513 42.553,233.874 44.294,230.113 C46.036,226.351 44.397,221.89 40.636,220.149 L15.917,208.708 L15.917,171.822 C15.917,168.602 17.33,165.565 19.793,163.491 L29.252,155.526 C42.806,144.112 53.056,129.675 59.367,113.615 L116.155,113.615 C122.465,129.676 132.715,144.113 146.27,155.526 L155.729,163.491 L155.729,163.491 C158.192,165.565 159.605,168.601 159.605,171.821 L159.605,275.215 L159.605,275.215 Z" id="Shape" fill="#000000"></path>
            <path d="M343.281,355.621 C340.535,352.623 336.628,350.903 332.562,350.903 L216.874,350.903 C212.808,350.903 208.901,352.623 206.155,355.621 C203.409,358.62 202.039,362.662 202.395,366.714 L213.711,495.088 C214.296,501.717 218.231,507.225 223.779,510.02 C226.301,511.291 229.156,512.001 232.18,512.001 L317.253,512.001 C320.278,512.001 323.133,511.291 325.654,510.02 C331.202,507.225 335.138,501.717 335.722,495.088 L347.038,366.714 C347.397,362.663 346.027,358.62 343.281,355.621 Z M320.771,493.768 C320.629,495.374 319.454,496.635 317.928,496.926 C317.71,496.967 317.485,496.989 317.254,496.989 L232.181,496.989 C231.951,496.989 231.725,496.967 231.507,496.926 C229.981,496.636 228.806,495.375 228.664,493.768 L228.009,486.341 L321.424,486.341 L320.771,493.768 Z M329.513,394.601 L274.718,394.601 C270.573,394.601 267.213,397.961 267.213,402.106 C267.213,406.251 270.573,409.611 274.718,409.611 L328.19,409.611 L322.753,471.287 C322.607,471.3 322.473,471.33 322.317,471.33 L227.119,471.33 C226.963,471.33 226.829,471.301 226.683,471.287 L221.246,409.611 L239.245,409.611 C243.39,409.611 246.75,406.251 246.75,402.106 C246.75,397.961 243.39,394.601 239.245,394.601 L219.922,394.601 L217.393,365.914 L332.04,365.914 L329.513,394.601 Z" id="Shape" fill="#000000"></path>
        </g>
    </g>
</svg>