<?xml version="1.0" encoding="UTF-8"?>
<svg width="368px" height="480px" viewBox="0 0 368 480" version="1.1" xmlns="http://www.w3.org/2000/svg" xmlns:xlink="http://www.w3.org/1999/xlink">
    <!-- Generator: Sketch 61.2 (89653) - https://sketch.com -->
    <title>wine</title>
    <desc>Created with Sketch.</desc>
    <g id="Page-1" stroke="none" stroke-width="1" fill="none" fill-rule="evenodd">
        <g id="wine" fill-rule="nonzero">
            <path d="M167.999996,292.24 L167.999996,456 C167.999996,464.837 160.837,472 151.999996,472 L23.9999956,472 C15.163,472 7.99999555,464.837 7.99999555,456 L7.99999555,292.24 C7.993,259.352 16.245,226.989 31.9999956,198.12 C41.254,181.156 47.956,162.92 51.89,144 C54.621,130.842 55.998,117.439 55.9999956,104 L55.9999956,48 L119.999996,48 L119.999996,104 C120.002,117.439 121.379,130.842 124.11,144 C124.7,146.87 125.37,149.73 126.09,152.57 C130.136,168.441 136.153,183.743 143.999996,198.12 C159.749,226.991 167.999996,259.353 167.999996,292.24 Z" id="Path" fill="#374357"></path>
            <path d="M64,8 L112,8 C116.418,8 120,11.582 120,16 L120,48 L56,48 L56,16 C56,11.582 59.582,8 64,8 Z" id="Path" fill="#C84431"></path>
            <path d="M360.000026,290.29 L360.000026,303.19 C360.000026,334.118 334.928,359.19 304,359.19 C273.072,359.19 247.999974,334.118 247.999974,303.19 L247.999974,290.29 C247.998,288.225 248.112,286.162 248.34,284.11 L256,215.19 L352,215.19 L359.66,284.11 C359.888,286.162 360.002,288.225 360.000026,290.29 Z" id="Path" fill="#E0E0DE"></path>
            <polygon id="Path" fill="#C84431" points="8 288 168 288 168 424 8 424"></polygon>
            <path d="M264.000026,290.29 L264.000026,303.19 C263.984,334.134 238.886,359.206 207.942,359.19 C201.126,359.186 194.368,357.939 188,355.51 C166.611,342.38 163.863,332.643 152.57,311.19 C152.187,308.541 151.997,305.867 151.999965,303.19 L151.999965,290.29 C151.998,288.225 152.112,286.162 152.34,284.11 L160,215.19 L256,215.19 L263.66,284.11 C263.888,286.162 264.002,288.225 264.000026,290.29 Z" id="Path" fill="#E0E0DE"></path>
            <path d="M124.11,144 L51.89,144 C54.621,130.842 55.998,117.439 56,104 L56,48 L120,48 L120,104 C120.002,117.439 121.379,130.842 124.11,144 L124.11,144 Z" id="Path" fill="#C84431"></path>
            <path d="M16,456 L16,432 L168,432 C172.418,432 176,428.418 176,424 L176,368 L160,368 L160,416 L16,416 L16,296 L128,296 L128,280 L16.42,280 C18.166,252.646 25.88,226.006 39.02,201.951 C47.603,186.217 54.08,169.423 58.284,152 L117.708,152 C117.908,152.832 118.118,153.678 118.338,154.547 C122.551,171.064 128.813,186.989 136.978,201.952 L151.022,194.288 C143.498,180.498 137.727,165.822 133.845,150.6 C133.099,147.656 132.478,144.969 131.945,142.37 C129.327,129.748 128.005,116.891 128,104 L128,16 C127.99,7.168 120.832,0.01 112,2.84217094e-14 L64,2.84217094e-14 C55.168,0.01 48.01,7.168 48,16 L48,104 C47.996,116.891 46.675,129.748 44.058,142.371 C40.285,160.521 33.856,178.014 24.978,194.288 C9.294,223.02 0.745,255.101 0.052,287.828 C0.021,289.3 1.42108547e-14,290.773 1.42108547e-14,292.24 L1.42108547e-14,456 C0.015,469.248 10.752,479.985 24,480 L136,480 L136,464 L24,464 C19.584,463.995 16.005,460.416 16,456 Z M114.527,136 L61.473,136 C63.149,125.416 63.994,114.716 64,104 L64,56 L112,56 L112,104 C112.005,114.716 112.85,125.416 114.527,136 L114.527,136 Z M64,16 L112,16 L112,40 L64,40 L64,16 Z" id="Shape" fill="#000000"></path>
            <path d="M86.539,170.24 L71.18,165.76 C69.664,170.954 67.938,176.148 66.051,181.198 L81.037,186.798 C83.062,181.383 84.914,175.812 86.539,170.24 Z" id="Path" fill="#000000"></path>
            <path d="M53.067,209.616 C46.182,222.236 40.901,235.667 37.347,249.597 C36.255,253.88 35.316,258.265 34.558,262.63 L50.321,265.37 C51.01,261.41 51.86,257.433 52.851,253.548 C56.075,240.911 60.866,228.727 67.113,217.279 C69.593,212.732 71.951,208.05 74.122,203.361 L59.6,196.639 C57.579,201.011 55.38,205.377 53.067,209.616 L53.067,209.616 Z" id="Path" fill="#000000"></path>
            <path d="M100.648,348.649 L109.47,351.59 L114.53,336.41 L105.709,333.47 C99.907,331.542 95.994,326.113 96,320 C96,315.582 92.418,312 88,312 C83.582,312 80,315.582 80,320 C80.006,326.113 76.093,331.542 70.291,333.47 L61.47,336.41 L66.53,351.59 L75.352,348.649 C76.955,348.11 78.509,347.439 80,346.641 L80,352 C80.006,358.113 76.093,363.542 70.291,365.47 L61.47,368.41 L66.53,383.59 L75.352,380.649 C76.955,380.11 78.509,379.439 80,378.641 L80,400 L96,400 L96,378.641 C97.491,379.439 99.045,380.11 100.648,380.649 L109.47,383.59 L114.53,368.41 L105.709,365.47 C99.907,363.542 95.994,358.113 96,352 L96,346.641 C97.491,347.439 99.045,348.11 100.648,348.649 Z" id="Path" fill="#000000"></path>
            <polygon id="Path" fill="#000000" transform="translate(293.478755, 265.992054) rotate(-83.856004) translate(-293.478755, -265.992054) " points="270.773104 257.994114 316.184407 257.994114 316.184407 273.989994 270.773104 273.989994"></polygon>
            <polygon id="Path" fill="#000000" transform="translate(186.484648, 265.965048) rotate(-83.856004) translate(-186.484648, -265.965048) " points="163.778997 257.967108 209.1903 257.967108 209.1903 273.962988 163.778997 273.962988"></polygon>
            <path d="M288,439.19 L320,439.19 C337.673,439.19 352,453.517 352,471.19 L256,471.19 C256,453.517 270.327,439.19 288,439.19 Z" id="Path" fill="#E0E0DE"></path>
            <path d="M360.000026,290.29 L360.000026,303.19 C359.984,334.134 334.886,359.206 303.942,359.19 C297.126,359.186 290.368,357.939 284,355.51 C302.967,348.246 316.521,331.291 319.43,311.19 C319.813,308.541 320.003,305.867 320,303.19 L320,290.29 C320.002,288.225 319.888,286.162 319.66,284.11 L312,215.19 L352,215.19 L359.66,284.11 C359.888,286.162 360.002,288.225 360.000026,290.29 Z" id="Path" fill="#DBDBD9"></path>
            <path d="M280.000026,290.29 L280.000026,303.19 C280.01,317.846 274.264,331.919 264,342.38 C253.736,331.919 247.99,317.846 247.999974,303.19 L247.999974,290.29 C247.998,288.225 248.112,286.162 248.34,284.11 L256,215.19 L272,215.19 L279.66,284.11 C279.888,286.162 280.002,288.225 280.000026,290.29 Z" id="Path" fill="#D6D6D4"></path>
            <path d="M192,439.19 L224,439.19 C241.673,439.19 256,453.517 256,471.19 L160,471.19 C160,453.517 174.327,439.19 192,439.19 Z" id="Path" fill="#E0E0DE"></path>
            <path d="M359.43,311.208 C355.005,341.821 326.601,363.051 295.988,358.626 C271.42,355.075 252.121,335.776 248.57,311.208 L359.43,311.208 Z" id="Path" fill="#C84431"></path>
            <path d="M359.43,311.19 C354.991,341.818 326.564,363.049 295.935,358.611 C291.855,358.02 287.852,356.98 284,355.51 C302.967,348.246 316.521,331.291 319.43,311.19 L359.43,311.19 Z" id="Path" fill="#BB3E2D"></path>
            <path d="M264.000026,290.29 L264.000026,303.19 C263.984,334.134 238.886,359.206 207.942,359.19 C201.126,359.186 194.368,357.939 188,355.51 C206.967,348.246 220.521,331.291 223.43,311.19 C223.813,308.541 224.003,305.867 224,303.19 L224,290.29 C224.002,288.225 223.888,286.162 223.66,284.11 L216,215.19 L256,215.19 L263.66,284.11 C263.888,286.162 264.002,288.225 264.000026,290.29 Z" id="Path" fill="#DBDBD9"></path>
            <path d="M263.43,311.19 C259.028,341.803 230.644,363.052 200.03,358.65 C175.431,355.113 156.106,335.788 152.57,311.19 L263.43,311.19 Z" id="Path" fill="#C84431"></path>
            <path d="M279.43,311.19 C277.74,322.965 272.334,333.892 264,342.38 C255.662,333.895 250.255,322.966 248.57,311.19 L279.43,311.19 Z" id="Path" fill="#B33522"></path>
            <path d="M263.43,311.19 C258.991,341.818 230.564,363.049 199.935,358.611 C195.855,358.02 191.852,356.98 188,355.51 C206.967,348.246 220.521,331.291 223.43,311.19 L263.43,311.19 Z" id="Path" fill="#BB3E2D"></path>
            <path d="M367.599,282.416 L359.939,213.496 C359.489,209.445 356.064,206.38 351.988,206.38 L279.988,206.38 L279.988,222.38 L344.828,222.38 L351.698,284.19 C351.89,285.91 351.988,302.38 351.988,302.38 L287.988,302.38 L287.988,318.38 L349.237,318.38 C342.39,337.506 324.302,350.298 303.988,350.38 C294.18,350.401 284.604,347.398 276.565,341.78 L267.411,354.903 C275.899,360.838 285.71,364.606 295.988,365.88 L295.988,430.38 L287.988,430.38 C275.391,430.381 263.533,436.321 255.988,446.408 C248.443,436.321 236.585,430.381 223.988,430.38 L215.988,430.38 L215.988,365.86 C244.51,362.167 267.111,339.983 271.334,311.535 C271.772,308.503 271.991,305.443 271.988,302.38 C271.988,302.38 271.857,284.707 271.599,282.416 L263.939,213.496 C263.489,209.445 260.064,206.38 255.988,206.38 L159.988,206.38 C155.912,206.38 152.487,209.445 152.037,213.496 L144.378,282.406 C144.119,284.706 144.313,309.284 144.638,311.512 C148.856,339.969 171.459,362.163 199.988,365.86 L199.988,430.38 L191.988,430.38 C169.907,430.405 152.013,448.299 151.988,470.38 C151.988,474.798 155.57,478.38 159.988,478.38 L351.988,478.38 C356.406,478.38 359.988,474.798 359.988,470.38 C359.963,448.299 342.069,430.405 319.988,430.38 L311.988,430.38 L311.988,365.86 C340.511,362.167 363.113,339.982 367.335,311.532 C367.768,308.552 367.857,284.719 367.599,282.416 L367.599,282.416 Z M160.279,284.18 L167.148,222.38 L248.828,222.38 L255.698,284.193 C255.888,285.903 255.988,302.38 255.988,302.38 L159.988,302.38 C159.988,302.38 160.088,285.903 160.279,284.18 Z M162.742,318.38 L253.242,318.38 C244.414,343.371 216.999,356.474 192.008,347.646 C178.331,342.815 167.573,332.057 162.742,318.38 Z M169.359,462.38 C172.76,452.798 181.821,446.392 191.988,446.38 L223.988,446.38 C234.155,446.392 243.216,452.798 246.617,462.38 L169.359,462.38 Z M342.617,462.38 L265.359,462.38 C268.76,452.798 277.821,446.392 287.988,446.38 L319.988,446.38 C330.155,446.392 339.216,452.798 342.617,462.38 L342.617,462.38 Z" id="Shape" fill="#000000"></path>
        </g>
    </g>
</svg>